<?xml version="1.0" encoding="UTF-8"?>
<svg id="Camada_1" data-name="Camada 1" xmlns="http://www.w3.org/2000/svg" viewBox="0 0 791.57 341.52">
  <defs>
    <style>
      .cls-1 {
        fill: #fff;
      }

      .cls-2 {
        fill: #2b2b2b;
      }

      .cls-3 {
        fill: #ff4733;
      }
    </style>
  </defs>
  <rect class="cls-2" x="-170.7" y="-383.91" width="1119.91" height="1119.91"/>
  <g>
    <g>
      <ellipse class="cls-3" cx="177.42" cy="238.16" rx="5.62" ry="4.41"/>
      <ellipse class="cls-3" cx="206.61" cy="262.58" rx="4.28" ry="5.45" transform="translate(-127.51 260.98) rotate(-51.53)"/>
      <ellipse class="cls-3" cx="205.82" cy="238.75" rx="3.98" ry="4.89"/>
      <ellipse class="cls-3" cx="177.42" cy="263.78" rx="3.98" ry="4.89" transform="translate(-85.18 84.62) rotate(-21.77)"/>
      <path class="cls-3" d="m300.17,66.93l-181.22-1.04-39.59,166.52-10.1,43.22h50.48l-2.07-41.9c1.86-48.63.59-118.23,67.29-125.32,83.48-8.87,82.1,100.89,82.21,130.49h.01l-2.46,29.49h21.72l-1.86-28.89,15.6-172.57Z"/>
    </g>
    <g>
      <g>
        <path class="cls-1" d="m314.47,157.39c0-31.61,20.44-51.86,50.53-51.86s50.34,20.25,50.34,51.86-20.44,51.67-50.34,51.67-50.53-20.25-50.53-51.67Zm77.22,0c0-19.68-10.41-30.85-26.69-30.85s-26.87,11.17-26.87,30.85,10.41,30.66,26.87,30.66,26.69-11.17,26.69-30.66Z"/>
        <path class="cls-1" d="m417.81,107.62h25.17l25.74,70.4,25.17-70.4h24.6l-38.04,99.36h-24.6l-38.04-99.36Z"/>
        <path class="cls-1" d="m521.14,157.39c0-31.61,19.49-51.86,49.96-51.86,32.17,0,47.31,21.01,45.23,52.42h-72.48c.19,19.87,10.79,31.04,27.25,31.04,14.19,0,22.71-7.19,25.74-19.68l21.57,5.3c-5.68,22.33-21.95,34.44-46.93,34.44-30.66,0-50.34-20.25-50.34-51.67Zm71.73-14c-1.14-12.3-9.27-18.17-21.76-18.17s-21.39,6.44-25.17,18.17h46.94Z"/>
        <path class="cls-1" d="m633.37,107.62h23.66v14.76c4.92-9.27,15.52-16.84,31.04-16.84,21.58,0,34.25,14.01,34.25,37.66v63.78h-23.66v-58.67c0-15.14-5.87-22.52-18.36-22.52s-23.28,9.27-23.28,27.63v53.56h-23.66v-99.36Z"/>
      </g>
      <g>
        <path class="cls-1" d="m328.11,239.85l3.04-.76c.72,3.55,3.43,5.11,6.19,5.11,3.23,0,4.47-1.24,4.47-3.19,0-4.95-12.18-2.2-12.18-10.18,0-3.39,2.71-5.71,7.31-5.71s7.51,2.75,8.35,5.83l-3.04.76c-.76-2.68-2.88-3.83-5.31-3.83-2.83,0-4.15,1.08-4.15,2.96,0,4.91,12.18,2.32,12.18,10.06,0,3.51-2.6,6.07-7.63,6.07s-8.43-2.8-9.22-7.11Z"/>
        <path class="cls-1" d="m363.74,217.77h3.27v15.73l10.58-7.95h4.79l-7.87,5.99,7.87,14.97h-3.71l-6.75-13.02-4.91,3.71v9.3h-3.27v-28.75Z"/>
        <path class="cls-1" d="m415.98,246.72c-2.44,0-4.11-1.28-4.23-4.07-1.6,2.99-4.03,4.31-7.03,4.31-3.63,0-5.87-2.2-5.87-5.35s1.88-5.27,6.63-6.55l6.27-1.64v-.32c0-3.23-1.64-5.07-5.03-5.07-2.6,0-4.63,1.32-5.59,3.95l-3.11-.88c1.68-4.15,4.91-5.99,8.87-5.99,5.03,0,8.11,3.15,8.11,7.79v9.1c0,1.36.64,1.92,1.76,1.92.76,0,1.24-.2,1.76-.4v2.64c-.72.36-1.6.56-2.52.56Zm-10.58-2.48c2.4,0,4.55-1.48,6.35-5.11v-3l-5.75,1.56c-2.71.72-3.87,1.92-3.87,3.71s1.24,2.83,3.27,2.83Z"/>
        <path class="cls-1" d="m436.91,240.89v-12.38h-3.71v-2.96h3.71v-5.27h3.27v5.27h6.19v2.96h-6.19v12.18c0,2.36,1.16,3.35,3.12,3.35,1.16,0,2.12-.4,2.83-1.16l1.44,2.4c-1.12,1-2.68,1.68-4.79,1.68-4.03,0-5.87-2.32-5.87-6.07Z"/>
        <path class="cls-1" d="m463.27,236.06c0-6.75,4.19-10.94,10.34-10.94,6.59,0,9.62,4.07,9.34,10.46h-16.45v.48c0,5.07,2.76,7.99,7.11,7.99,3.75,0,5.99-1.92,6.71-5.39l3.08.8c-1.08,4.75-4.51,7.51-9.78,7.51-6.15,0-10.34-4.19-10.34-10.9Zm16.37-3c-.32-3.67-2.6-5.07-6.03-5.07s-5.87,1.8-6.75,5.07h12.78Z"/>
        <path class="cls-1" d="m523.58,239.85l3.04-.76c.72,3.55,3.43,5.11,6.19,5.11,3.23,0,4.47-1.24,4.47-3.19,0-4.95-12.18-2.2-12.18-10.18,0-3.39,2.71-5.71,7.31-5.71s7.51,2.75,8.35,5.83l-3.04.76c-.76-2.68-2.88-3.83-5.31-3.83-2.83,0-4.15,1.08-4.15,2.96,0,4.91,12.18,2.32,12.18,10.06,0,3.51-2.6,6.07-7.63,6.07s-8.43-2.8-9.22-7.11Z"/>
        <path class="cls-1" d="m559.2,217.77h3.27v11.3c1-2.2,3.43-3.95,6.95-3.95,4.39,0,7.23,2.83,7.23,7.95v13.46h-3.27v-13.02c0-3.75-1.6-5.51-4.83-5.51s-6.07,2.24-6.07,6.83v11.7h-3.27v-28.75Z"/>
        <path class="cls-1" d="m594.95,236.06c0-6.75,4.23-10.94,10.38-10.94s10.38,4.19,10.38,10.94-4.23,10.9-10.38,10.9-10.38-4.19-10.38-10.9Zm17.49,0c0-5.07-2.75-7.99-7.11-7.99s-7.11,2.92-7.11,7.99,2.79,7.95,7.11,7.95,7.11-2.92,7.11-7.95Z"/>
        <path class="cls-1" d="m634.25,225.56h3.27v3.51c1.28-2.56,4.11-3.95,7.11-3.95,5.67,0,9.3,4.27,9.3,10.9s-3.63,10.94-9.3,10.94c-3,0-5.87-1.56-7.11-4.03v10.58h-3.27v-27.95Zm16.41,10.46c0-4.83-2.48-7.99-6.75-7.99-3.75,0-6.51,2.83-6.51,7.99s2.75,8.03,6.51,8.03c4.27,0,6.75-3.16,6.75-8.03Z"/>
      </g>
    </g>
  </g>
</svg>